<svg id="Layer_1" data-name="Layer 1" xmlns="http://www.w3.org/2000/svg" xmlns:xlink="http://www.w3.org/1999/xlink" viewBox="0 0 252 252"><defs><style>.cls-1,.cls-3{fill:none;}.cls-2{clip-path:url(#clip-path);}.cls-3{stroke:#000;stroke-miterlimit:10;stroke-width:4px;}</style><clipPath id="clip-path"><path class="cls-1" d="M249.91,104.78c-2.31-44.1-79-3-124-3s-121.66-41.1-124,3c-2,38.11,62,61.53,124,62.27C188,166.31,251.91,142.89,249.91,104.78Z"/></clipPath></defs><g class="cls-2"><path d="M34.25,120.75H33A14.39,14.39,0,0,0,18.62,135v0A14.39,14.39,0,0,0,4.33,120.64h0a14.38,14.38,0,0,0,14.39-14.27v0A14.38,14.38,0,0,0,33,120.74Z"/><path d="M65.25,120.75H64A14.39,14.39,0,0,0,49.62,135v0a14.39,14.39,0,0,0-14.28-14.39h0a14.38,14.38,0,0,0,14.39-14.27v0A14.38,14.38,0,0,0,64,120.74Z"/><path d="M96.25,120.75H95A14.39,14.39,0,0,0,80.62,135v0a14.39,14.39,0,0,0-14.28-14.39h0a14.38,14.38,0,0,0,14.39-14.27v0A14.38,14.38,0,0,0,95,120.74Z"/><path d="M127.25,120.75H126A14.39,14.39,0,0,0,111.62,135v0a14.39,14.39,0,0,0-14.28-14.39h0a14.38,14.38,0,0,0,14.39-14.27v0A14.38,14.38,0,0,0,126,120.74Z"/><path d="M158.25,120.75H157A14.39,14.39,0,0,0,142.62,135v0a14.39,14.39,0,0,0-14.28-14.39h0a14.38,14.38,0,0,0,14.39-14.27v0A14.38,14.38,0,0,0,157,120.74Z"/><path d="M189.25,120.75H188A14.39,14.39,0,0,0,173.62,135v0a14.39,14.39,0,0,0-14.28-14.39h0a14.38,14.38,0,0,0,14.39-14.27v0A14.38,14.38,0,0,0,188,120.74Z"/><path d="M220.25,120.75H219A14.39,14.39,0,0,0,204.62,135v0a14.39,14.39,0,0,0-14.28-14.39h0a14.38,14.38,0,0,0,14.39-14.27v0A14.38,14.38,0,0,0,219,120.74Z"/><path d="M251.25,120.75H250A14.39,14.39,0,0,0,235.62,135v0a14.39,14.39,0,0,0-14.28-14.39h0a14.38,14.38,0,0,0,14.39-14.27v0A14.38,14.38,0,0,0,250,120.74Z"/></g><path class="cls-3" d="M250,104.41c-2.32-44.09-79-3-124-3S4.34,60.32,2,104.41C0,142.52,64,166,126,166.68,188,166,252,142.52,250,104.41Z"/></svg>