<svg id="레이어_1" data-name="레이어 1" xmlns="http://www.w3.org/2000/svg" viewBox="0 0 36.12 25.27"><defs><style>.cls-1{fill:#8a4ced;}.cls-2{fill:#fff;}.cls-3{stroke:#4848ff;stroke-width:0;}</style></defs><path class="cls-1" d="M31.92,9.38A1.43,1.43,0,0,0,31.86,9a9.46,9.46,0,0,0,.08-1.24C31.94,4.3,31.71,0,28.52,0,25.1,0,25.1,4.3,25.1,7.77c0,.39,0,.75,0,1.08a34.17,34.17,0,0,1-7.09,1,33.82,33.82,0,0,1-7.19-1.06c0-.32.05-.67.05-1.05C10.92,4.3,10.69,0,7.5,0,4.08,0,4.08,4.3,4.08,7.77A9,9,0,0,0,4.2,9.32v.06c-.27,4.29-5.49,5.25-3.9,9.45s12.16,6.44,17.76,6.44S34.25,23,35.82,18.83,32.19,13.67,31.92,9.38Z"/><path id="Shape_1" data-name="Shape 1" class="cls-2" d="M10.61,10.89c-3.8-.74-5,1.23-5,2.43s1.59,3.2,4.35,3.41c3.74.28,4.48-1.76,4.55-2.85S14,11.56,10.61,10.89Z"/><path id="Shape_1-2" data-name="Shape 1" class="cls-3" d="M10.68,11.56a2.11,2.11,0,0,0-2.49,2.08,2.29,2.29,0,0,0,2.07,2.42A2.35,2.35,0,0,0,12.76,14,2.33,2.33,0,0,0,10.68,11.56Z"/><path id="Shape_1-3" data-name="Shape 1" class="cls-2" d="M25.65,10.89c3.8-.74,5,1.23,5,2.43s-1.59,3.2-4.35,3.41c-3.74.28-4.48-1.76-4.55-2.85S22.24,11.56,25.65,10.89Z"/><path id="Shape_1-4" data-name="Shape 1" class="cls-3" d="M25.58,11.56a2.11,2.11,0,0,1,2.49,2.08A2.29,2.29,0,0,1,26,16.06,2.35,2.35,0,0,1,23.5,14,2.33,2.33,0,0,1,25.58,11.56Z"/></svg>